<svg xmlns="http://www.w3.org/2000/svg" width="512.0009765625" height="512"><rect id="backgroundrect" width="100%" height="100%" x="0" y="0" fill="none" stroke="none"/><g class="currentLayer" style=""><title>Layer 1</title><path d="m256 455.515625c-7.289062 0-14.316406-2.640625-19.792969-7.4375-20.683593-18.085937-40.625-35.082031-58.21875-50.074219l-.089843-.078125c-51.582032-43.957031-96.125-81.917969-127.117188-119.3125-34.644531-41.804687-50.78125-81.441406-50.78125-124.742187 0-42.070313 14.425781-80.882813 40.617188-109.292969 26.503906-28.746094 62.871093-44.578125 102.414062-44.578125 29.554688 0 56.621094 9.34375 80.445312 27.769531 12.023438 9.300781 22.921876 20.683594 32.523438 33.960938 9.605469-13.277344 20.5-24.660157 32.527344-33.960938 23.824218-18.425781 50.890625-27.769531 80.445312-27.769531 39.539063 0 75.910156 15.832031 102.414063 44.578125 26.191406 28.410156 40.613281 67.222656 40.613281 109.292969 0 43.300781-16.132812 82.9375-50.777344 124.738281-30.992187 37.398437-75.53125 75.355469-127.105468 119.308594-17.625 15.015625-37.597657 32.039062-58.328126 50.167969-5.472656 4.789062-12.503906 7.429687-19.789062 7.429687zm-112.96875-425.523437c-31.066406 0-59.605469 12.398437-80.367188 34.914062-21.070312 22.855469-32.675781 54.449219-32.675781 88.964844 0 36.417968 13.535157 68.988281 43.882813 105.605468 29.332031 35.394532 72.960937 72.574219 123.476562 115.625l.09375.078126c17.660156 15.050781 37.679688 32.113281 58.515625 50.332031 20.960938-18.253907 41.011719-35.34375 58.707031-50.417969 50.511719-43.050781 94.136719-80.222656 123.46875-115.617188 30.34375-36.617187 43.878907-69.1875 43.878907-105.605468 0-34.515625-11.605469-66.109375-32.675781-88.964844-20.757813-22.515625-49.300782-34.914062-80.363282-34.914062-22.757812 0-43.652344 7.234374-62.101562 21.5-16.441406 12.71875-27.894532 28.796874-34.609375 40.046874-3.453125 5.785157-9.53125 9.238282-16.261719 9.238282s-12.808594-3.453125-16.261719-9.238282c-6.710937-11.25-18.164062-27.328124-34.609375-40.046874-18.449218-14.265626-39.34375-21.5-62.097656-21.5zm0 0" id="svg_1" class="" stroke="#ffffff" stroke-opacity="1" fill="#b80404" fill-opacity="1" opacity="1"/><path fill="#b80404" fill-opacity="1" stroke="none" stroke-opacity="1" stroke-width="1" stroke-dasharray="none" stroke-linejoin="miter" stroke-linecap="butt" stroke-dashoffset="" fill-rule="nonzero" opacity="1" marker-start="" marker-mid="" marker-end="" d="M245.9458705186844,190.72237598896027L319.08019626140594,177.2895406484604" id="svg_2"/><path fill="#d50b0b" fill-opacity="1" stroke="none" stroke-opacity="1" stroke-width="1" stroke-dasharray="none" stroke-linejoin="miter" stroke-linecap="butt" stroke-dashoffset="" fill-rule="nonzero" opacity="1" marker-start="" marker-mid="" marker-end="" d="M444.4533261060715,152.66267585754395L490.7219811677932,124.30446791648865" id="svg_4"/><path fill="#d50b0b" fill-opacity="1" stroke="none" stroke-opacity="1" stroke-width="1" stroke-dasharray="none" stroke-linejoin="miter" stroke-linecap="butt" stroke-dashoffset="" fill-rule="nonzero" opacity="1" marker-start="" marker-mid="" marker-end="" d="M489.22944390773773,124.30446791648865L128.03542697429657,193.70745050907135" id="svg_6"/><path fill="#d50b0b" fill-opacity="1" stroke="none" stroke-opacity="1" stroke-width="1" stroke-dasharray="none" stroke-linejoin="miter" stroke-linecap="butt" stroke-dashoffset="" fill-rule="nonzero" opacity="1" marker-start="" marker-mid="" marker-end="" d="M334.00556886196136,160.12536215782166L228.03542339801788,182.51342105865479" id="svg_8"/><polyline fill="#b80404" stroke="#b80404" style="color: rgb(0, 0, 0);" stroke-dashoffset="" fill-rule="nonzero" marker-start="" marker-mid="" marker-end="" id="svg_5" points="256.68108183145523,81.12591552734375 252.9773782491684,77.42221194505692 251.49589681625366,75.94073051214218 250.0144153833389,74.45924907922745 246.31071180105207,70.75554549694061 241.12552678585052,65.57036048173904 240.38478606939316,64.08887904882431 238.16256392002106,62.60739761590958 237.4218232035637,61.86665689945221 235.94034177064898,61.12591618299484 235.19960105419156,60.385175466537476 235.19960105419156,59.6444347500801 234.45886033773422,58.90369403362275 233.71811962127686,58.162953317165375 232.9773789048195,56.68147188425064 231.49589747190473,55.199990451335914 231.49589747190473,54.45924973487854 230.7551567554474,54.45924973487854 229.27367532253265,53.71850901842117 227.05145317316055,52.23702758550644 226.3107124567032,51.49628686904908 224.08849030733106,50.01480543613434 223.34774959087372,49.27406471967697 220.38478672504422,47.79258328676223 218.90330529212952,47.05184257030487 213.71812027692798,44.82962042093277 212.2366388440132,44.0888797044754 210.75515741109848,43.348138988018036 210.01441669464114,42.60739827156067 208.53293526172638,42.60739827156067 208.53293526172638,41.8666575551033 207.792194545269,41.8666575551033 206.3107131123543,41.125916838645935 206.3107131123543,40.38517612218857 205.5699723958969,40.38517612218857 203.3477502465248,38.903694689273834 201.1255280971527,38.16295397281647 196.6810837984085,35.94073182344437 193.71812093257904,35.199991106987 192.2366394996643,34.45925039052963 189.27367663383484,32.9777689576149 185.569973051548,31.49628752470017 185.569973051548,30.755546808242798 184.08849161863327,30.014806091785427 183.3477509021759,29.274065375328064 181.86626946926117,28.533324658870697 181.1255287528038,28.533324658870697 180.38478803634644,27.792583942413334 179.64404731988907,27.792583942413334 178.16256588697433,27.792583942413334 177.42182517051697,27.051843225955963 176.6810844540596,27.051843225955963 174.4588623046875,25.57036179304123 174.4588623046875,24.829621076583862 171.49589943885803,24.0888803601265 170.0144180059433,23.34813964366913 166.31071442365646,23.34813964366913 164.82923299074173,23.34813964366913 164.08849227428436,22.60739892721176 162.60701084136963,22.60739892721176 161.86627012491226,22.60739892721176 161.1255294084549,22.60739892721176 160.38478869199753,22.60739892721176 159.64404797554016,22.60739892721176 158.16256654262543,22.60739892721176 156.6810851097107,21.866658210754395 155.94034439325333,21.866658210754395 153.71812224388123,21.125917494297028 152.2366408109665,21.125917494297028 150.0144186615944,19.644436061382294 149.27367794513702,19.644436061382294 145.5699743628502,18.16295462846756 144.08849292993546,18.16295462846756 142.60701149702072,17.422213912010193 141.125530064106,17.422213912010193 139.64404863119125,17.422213912010193 138.9033079147339,17.422213912010193 138.16256719827652,17.422213912010193 137.42182648181915,17.422213912010193 135.94034504890442,17.422213912010193 131.49590075016022,16.681473195552826 126.31071573495866,15.94073247909546 125.56997501850128,15.94073247909546 123.34775286912918,15.94073247909546 122.60701215267183,15.94073247909546 120.3847900032997,15.94073247909546 117.42182713747025,15.94073247909546 115.94034570455551,15.94073247909546 113.71812355518341,15.94073247909546 112.97738283872603,15.94073247909546 112.23664212226868,15.94073247909546 111.49590140581132,15.94073247909546 110.75516068935394,15.94073247909546 109.2736792564392,15.94073247909546 107.05145710706711,16.681473195552826 106.31071639060974,16.681473195552826 104.82923495769501,17.422213912010193 102.6070128083229,17.422213912010193 101.12553137540817,17.422213912010193 98.90330922603607,18.903695344924927 96.68108707666399,18.903695344924927 95.19960564374924,19.644436061382294 94.45886492729187,19.644436061382294 92.23664277791977,20.38517677783966 90.01442062854767,21.125917494297028 87.0514577627182,21.866658210754395 85.56997632980347,22.60739892721176 84.8292356133461,23.34813964366913 83.34775418043137,24.0888803601265 82.607013463974,24.829621076583862 80.3847913146019,25.57036179304123 76.68108773231506,27.792583942413334 73.7181248664856,30.014806091785427 70.01442128419876,34.45925039052963 67.0514584183693,37.4222132563591 61.12553268671035,41.8666575551033 59.644051253795624,41.8666575551033 56.68108838796616,44.82962042093277 55.94034767150879,46.311101853847504 55.19960695505142,47.05184257030487 54.458866238594055,47.05184257030487 53.71812552213669,49.27406471967697 52.97738480567933,50.01480543613434 52.236644089221954,51.49628686904908 51.49590337276459,52.977768301963806 49.273681223392494,57.42221260070801 48.53294050693512,58.90369403362275 46.31071835756302,61.86665689945221 44.829236924648285,64.08887904882431 44.829236924648285,64.82961976528168 44.08849620819092,65.57036048173904 43.34775549173355,67.05184191465378 42.607014775276184,70.75554549694061 41.12553334236145,72.97776764631271 40.38479262590408,74.45924907922745 38.90331119298935,75.94073051214218 35.94034832715988,80.38517481088638 32.977385461330414,85.57035982608795 32.977385461330414,86.31110054254532 32.23664474487305,88.53332269191742 31.495904028415676,91.49628555774689 31.495904028415676,92.23702627420425 30.755163311958313,93.71850770711899 30.014422595500946,94.45924842357635 29.273681879043583,95.94072985649109 28.532941162586212,97.42221128940582 27.05145972967148,99.64443343877792 27.05145972967148,100.38517415523529 26.31071901321411,101.86665558815002 26.31071901321411,102.6073963046074 24.829237580299377,108.53332203626633 24.829237580299377,111.49628490209578 23.347756147384644,116.68146991729736 22.607015430927277,118.1629513502121 21.125533998012543,121.86665493249893 21.125533998012543,124.08887708187103 21.125533998012543,124.82961779832841 20.384793281555176,126.31109923124312 19.64405256509781,130.01480281352997 19.64405256509781,131.4962842464447 19.64405256509781,132.23702496290207 19.64405256509781,133.7185063958168 19.64405256509781,135.19998782873154 19.64405256509781,137.42220997810364 18.903311848640442,143.34813570976257 18.903311848640442,145.57035785913467 18.162571132183075,150.75554287433624 18.162571132183075,152.97776502370834 18.162571132183075,153.7185057401657 18.162571132183075,156.68146860599518 18.162571132183075,160.385172188282 18.162571132183075,161.12591290473938 18.162571132183075,164.82961648702621 18.162571132183075,165.57035720348358 18.162571132183075,171.49628293514252 18.162571132183075,172.97776436805725 20.384793281555176,179.64443081617355 21.86627471446991,183.3481343984604 24.829237580299377,191.49628227949142 24.829237580299377,192.97776371240616 25.569978296756748,196.681467294693 25.569978296756748,198.16294872760773 25.569978296756748,199.64443016052246 26.31071901321411,201.86665230989456 27.05145972967148,203.3481337428093 27.05145972967148,204.82961517572406 27.79220044612884,206.31109660863876 27.79220044612884,207.05183732509613 28.532941162586212,207.7925780415535 29.273681879043583,209.27405947446823 29.273681879043583,210.0148001909256 29.273681879043583,211.49628162384033 30.014422595500946,213.71850377321243 30.755163311958313,214.4592444896698 30.755163311958313,215.19998520612717 32.23664474487305,217.42220735549927 32.23664474487305,218.90368878841397 32.977385461330414,219.6444295048714 32.977385461330414,221.1259109377861 35.199607610702515,225.5703552365303 35.94034832715988,227.7925773859024 38.90331119298935,233.7185031175613 40.38479262590408,235.19998455047607 42.607014775276184,240.38516956567764 44.08849620819092,241.8666509985924 47.051459074020386,248.53331744670865 48.53294050693512,250.75553959608078 49.273681223392494,253.71850246191025 50.75516265630722,254.45924317836761 51.49590337276459,255.94072461128232 52.236644089221954,256.6814653277397 54.458866238594055,258.9036874771118 55.94034767150879,260.38516891002655 60.384791970253,264.0888724923134 63.34775483608246,267.7925760746002 67.0514584183693,272.2370203733444 68.53293985128403,273.71850180625916 70.75516200065613,275.94072395563126 72.23664343357086,277.422205388546 74.45886558294296,280.38516825437546 76.68108773231506,284.0888718366623 77.42182844877243,285.570353269577 86.31071704626083,296.68146401643753 88.53293919563293,298.16294544935226 93.7181242108345,301.8666490316391 95.9403463602066,304.0888711810112 99.64404994249344,308.5333154797554 101.12553137540817,308.5333154797554 101.86627209186554,309.27405619621277 104.08849424123765,311.49627834558487 109.2736792564392,315.94072264432907 112.23664212226868,319.6444262266159 114.45886427164078,322.6073890924454 118.903308570385,325.57035195827484 119.64404928684235,325.57035195827484 122.60701215267183,329.2740555405617 124.08849358558653,330.01479625701904 128.53293788433075,334.45924055576324 129.27367860078812,336.68146270513535 131.49590075016022,338.90368485450745 134.45886361598969,341.8666477203369 137.42182648181915,344.8296105861664 139.64404863119125,345.57035130262375 141.86627078056335,348.5333141684532 144.82923364639282,351.4962770342827 146.31071507930756,351.4962770342827 146.31071507930756,352.23701775074005 150.0144186615944,354.45923990011215 152.2366408109665,355.9407213330269 158.9033072590828,360.3851656317711 160.38478869199753,361.12590634822845 163.347751557827,364.0888692140579 164.82923299074173,364.0888692140579 165.5699737071991,366.31109136343 168.53293657302856,369.2740542292595 169.27367728948593,370.01479494571686 172.2366401553154,372.23701709508896 173.71812158823013,373.7184985280037 175.94034373760223,376.68146139383316 177.42182517051697,377.4222021102905 180.38478803634644,381.86664640903473 182.60701018571854,384.8296092748642 184.08849161863327,387.05183142423635 187.05145448446274,390.01479429006577 189.27367663383484,391.4962757229805 190.75515806674957,392.97775715589523 191.4958987832069,394.45923858881 193.71812093257904,394.45923858881 196.6810837984085,395.9407200217247 198.16256523132324,396.68146073818207 203.3477502465248,399.64442360401154 205.5699723958969,401.12590503692627 210.75515741109848,404.8296086192131 215.94034242630005,408.53331220149994 218.90330529212952,410.75553435087204 221.86626815795898,412.2370157837868 222.60700887441635,412.9777565002442 224.82923102378848,414.4592379331589 226.3107124567032,415.19997864961624 227.7921938896179,418.1629415154457 228.53293460607532,418.9036822319031 229.27367532253265,421.86664509773254 230.01441603899002,422.6073858141899 232.23663818836215,423.3481265306473 236.68108248710632,425.5703486800194 238.16256392002106,427.0518301129341 241.12552678585052,428.53331154584885 241.8662675023079,430.0147929787636 243.34774893522265,430.75553369522095 244.08848965168,431.49627441167837 244.82923036813736,431.49627441167837 244.82923036813736,432.2370151281357 246.31071180105207,432.97775584459305 247.0514525175095,432.97775584459305 247.0514525175095,433.71849656105036 247.79219323396683,433.71849656105036 247.79219323396683,434.4592372775078 248.5329339504242,434.4592372775078 249.27367466688156,435.1999779939652 250.0144153833389,435.1999779939652 250.75515609979632,435.1999779939652 251.49589681625366,435.1999779939652 252.23663753271103,435.1999779939652 252.9773782491684,435.1999779939652 253.71811896562573,435.9407187104225 254.45885968208316,435.9407187104225 255.1996003985405,435.9407187104225 255.94034111499786,435.9407187104225 256.68108183145523,435.9407187104225 257.4218225479126,435.9407187104225 258.16256326436996,435.9407187104225 258.90330398082733,435.9407187104225 260.38478541374207,435.9407187104225 261.12552613019943,435.1999779939652 264.82922971248627,433.71849656105036 278.1625626087189,428.53331154584885 281.8662661910057,425.5703486800194 282.6070069074631,424.0888672471047 283.34774762392044,422.6073858141899 284.8292290568352,419.64442294836044 286.3107104897499,417.42220079898834 287.0514512062073,415.9407193660736 291.4958955049515,410.75553435087204 292.9773769378662,409.27405291795736 295.1995990872383,407.7925714850426 297.4218212366104,407.0518307685852 299.6440433859825,405.5703493356705 300.3847841024399,404.8296086192131 301.12552481889725,404.08886790275574 301.8662655353546,403.34812718629837 303.34774696826935,402.607386469841 303.34774696826935,401.8666457533837 304.8292284011841,401.8666457533837 305.56996911764145,401.12590503692627 307.0514505505562,399.64442360401154 309.2736726999283,398.16294217109686 316.68107986450195,392.23701643943787 318.90330201387405,390.7555350065232 324.829227745533,386.31109070777893 327.79219061136246,384.8296092748642 334.45885705947876,378.90368354320526 335.9403384923935,376.68146139383316 335.9403384923935,375.9407206773758 336.68107920885086,375.1999799609184 338.1625606417656,372.23701709508896 346.31070852279663,364.0888692140579 347.79218995571136,361.8666470646858 360.3847821354866,352.9777584671974 361.12552285194397,351.4962770342827 368.53293001651764,345.57035130262375 370.0144114494324,344.8296105861664 372.2366335988045,341.8666477203369 373.7181150317192,341.12590700387955 373.7181150317192,340.3851662874222 374.4588557481766,338.90368485450745 375.9403371810913,338.90368485450745 377.42181861400604,337.4222034215927 379.64404076337814,335.940721988678 383.347744345665,332.9777591228485 388.5329293608666,327.0518333911896 390.0144107937813,326.3110926747322 393.7181143760681,321.12590765953064 395.19959580898285,318.1629447937012 398.1625586748123,315.1999819278717 398.1625586748123,314.45924121141434 398.1625586748123,313.71850049495697 399.6440401077271,312.23701906204224 401.86626225709915,309.27405619621277 402.6070029735565,308.5333154797554 410.0144101381302,303.34813046455383 412.2366322875023,301.12590831518173 415.9403358697891,298.16294544935226 417.42181730270386,295.94072329998016 420.3847801685333,292.23701971769333 421.1255208849907,290.0147975683212 421.8662616014481,288.5333161354065 421.8662616014481,287.7925754189491 422.6070023179054,287.05183470249176 423.3477430343628,285.570353269577 424.8292244672775,283.3481311202049 425.56996518373495,281.8666496872902 430.0144094824791,277.422205388546 431.49589091539383,275.94072395563126 437.42181664705276,266.3110946416855 440.3847795128823,260.38516891002655 441.1255202293396,257.4222060441971 441.1255202293396,256.6814653277397 441.86626094579697,256.6814653277397 443.3477423787117,256.6814653277397 444.82922381162643,255.94072461128232 447.79218667745596,255.19998389482498 450.75514954328537,253.71850246191025 451.4958902597428,253.71850246191025 452.2366309762001,252.23702102899549 452.97737169265747,250.75553959608078 453.7181124091148,249.27405816316607 453.7181124091148,248.53331744670865 454.4588531255722,247.05183601379395 455.1995938420296,246.31109529733658 455.1995938420296,245.57035458087924 455.94033455848694,244.08887314796448 456.6810752749443,243.3481324315071 458.16255670785904,241.8666509985924 458.90329742431646,241.12591028213498 459.6440381407738,240.38516956567764 461.12551957368845,238.9036881327629 461.8662602901459,238.16294741630557 461.8662602901459,236.6814659833908 463.3477417230606,235.94072526693344 464.088482439518,233.7185031175613 465.5699638724327,232.2370216846466 465.5699638724327,231.49628096818924 466.31070458889013,229.27405881881714 467.7921860218048,224.82961452007294 469.27366745471954,222.6073923707008 469.27366745471954,221.86665165424347 470.01440817117697,219.6444295048714 470.7551488876343,218.16294807195663 470.7551488876343,217.42220735549927 470.7551488876343,218.16294807195663 470.7551488876343,221.86665165424347 470.7551488876343,223.34813308715823 470.7551488876343,224.82961452007294 471.49588960409164,224.82961452007294 471.49588960409164,222.6073923707008 472.9773710370064,221.86665165424347 475.1995931863785,218.16294807195663 481.8662596344948,209.27405947446823 482.60700035095215,207.7925780415535 484.8292225003243,205.5703558921814 487.0514446496963,202.60739302635193 489.27366679906845,198.9036894440651 490.0144075155258,197.4222080111504 490.0144075155258,196.681467294693 490.0144075155258,195.19998586177826 490.0144075155258,193.71850442886355 490.0144075155258,190.75554156303406 490.7551482319831,184.82961583137512 490.7551482319831,183.3481343984604 490.7551482319831,179.64443081617355 491.49588894844055,175.94072723388672 491.49588894844055,172.97776436805725 492.236629664898,172.23702365159988 492.236629664898,170.01480150222778 492.236629664898,168.53332006931305 492.9773703813553,165.57035720348358 492.9773703813553,162.6073943376541 492.9773703813553,161.86665362119675 492.9773703813553,161.12591290473938 492.9773703813553,160.385172188282 492.9773703813553,158.90369075536728 492.9773703813553,157.42220932245255 492.9773703813553,154.45924645662308 492.9773703813553,152.23702430725098 494.45885181426996,143.34813570976257 494.45885181426996,141.86665427684784 494.45885181426996,139.64443212747574 494.45885181426996,136.68146926164627 494.45885181426996,132.23702496290207 494.45885181426996,129.2740620970726 494.45885181426996,127.79258066415787 494.45885181426996,127.0518399477005 494.45885181426996,124.82961779832841 494.45885181426996,121.12591421604158 494.45885181426996,120.3851734995842 494.45885181426996,119.64443278312683 493.71811109781265,118.1629513502121 492.9773703813553,116.68146991729736 491.49588894844055,109.2740627527237 488.53292608261114,100.38517415523529 487.7921853661537,98.90369272232057 486.310703933239,95.94072985649109 484.8292225003243,90.75554484128952 484.0884817838669,89.27406340837479 484.0884817838669,87.79258197546005 483.34774106740946,87.05184125900269 480.38477820158005,82.60739696025848 478.9032967686653,80.38517481088638 478.16255605220795,79.64443409442902 475.1995931863785,74.45924907922745 473.7181117534638,72.97776764631271 470.01440817117697,69.27406406402588 468.5329267382621,67.05184191465378 465.5699638724327,63.348138332366936 464.8292231559753,63.348138332366936 464.088482439518,62.60739761590958 463.3477417230606,61.12591618299484 462.6070010066033,58.90369403362275 460.38477885723114,56.68147188425064 458.90329742431646,54.45924973487854 452.2366309762001,46.311101853847504 450.75514954328537,44.0888797044754 448.53292739391327,41.8666575551033 444.0884830951691,37.4222132563591 442.6070016622543,36.68147253990173 440.3847795128823,34.45925039052963 438.16255736351013,33.718509674072266 434.4588537812233,31.49628752470017 432.9773723483086,30.014806091785427 429.2736687660218,29.274065375328064 424.8292244672775,28.533324658870697 421.1255208849907,27.792583942413334 419.64403945207596,27.051843225955963 412.2366322875023,25.57036179304123 410.7551508545876,24.829621076583862 410.0144101381302,24.0888803601265 409.2736694216728,24.0888803601265 408.53292870521545,23.34813964366913 404.08848440647125,21.125917494297028 401.1255215406418,20.38517677783966 396.6810772418976,19.644436061382294 389.2736700773239,18.16295462846756 387.0514479279518,18.16295462846756 383.347744345665,17.422213912010193 376.6810778975487,15.19999176263809 375.19959646463394,15.19999176263809 372.2366335988045,15.19999176263809 368.53293001651764,13.718510329723358 367.0514485836029,13.718510329723358 365.56996715068817,13.718510329723358 361.86626356840134,13.718510329723358 360.3847821354866,13.718510329723358 358.1625599861145,13.718510329723358 355.19959712028503,13.718510329723358 354.45885640382767,13.718510329723358 353.7181156873703,14.459251046180725 352.97737497091293,14.459251046180725 352.23663425445557,15.19999176263809 348.53293067216873,15.94073247909546 344.8292270898819,15.94073247909546 342.6070049405098,16.681473195552826 335.9403384923935,17.422213912010193 334.45885705947876,18.16295462846756 331.4958941936493,18.16295462846756 330.01441276073456,18.16295462846756 325.56996846199036,19.644436061382294 324.829227745533,19.644436061382294 322.6070055961609,20.38517677783966 320.3847834467888,21.866658210754395 317.4218205809593,23.34813964366913 315.9403391480446,23.34813964366913 315.1995984315872,24.0888803601265 312.9773762822151,24.829621076583862 311.4958948493004,26.311102509498596 308.5329319834709,27.792583942413334 308.5329319834709,29.274065375328064 306.3107098340988,30.755546808242798 304.0884876847267,32.9777689576149 303.34774696826935,32.9777689576149 302.607006251812,34.45925039052963 301.8662655353546,35.199991106987 300.3847841024399,35.94073182344437 295.1995990872383,38.903694689273834 290.7551547884941,42.60739827156067 287.79219192266464,46.311101853847504 284.8292290568352,48.533324003219604 280.384784758091,51.49628686904908 275.94034045934677,55.199990451335914 270.7551554441452,60.385175466537476 270.01441472768784,61.12591618299484 268.5329332947731,62.60739761590958 268.5329332947731,63.348138332366936 267.79219257831573,63.348138332366936 266.310711145401,66.31110119819641 265.56997042894363,67.05184191465378 264.82922971248627,67.79258263111115 264.82922971248627,68.53332334756851 264.0884889960289,68.53332334756851 264.0884889960289,69.27406406402588 263.34774827957153,70.01480478048325 262.60700756311417,70.75554549694061 262.60700756311417,71.49628621339798 261.8662668466568,72.23702692985535 261.8662668466568,72.97776764631271 261.12552613019943,73.71850836277008 260.38478541374207,74.45924907922745 260.38478541374207,75.19998979568481 260.38478541374207,75.94073051214218 259.6440446972847,76.68147122859955 259.6440446972847,77.42221194505692 258.90330398082733,77.42221194505692 258.90330398082733,78.16295266151428 258.16256326436996,78.90369337797165 257.4218225479126,79.64443409442902 257.4218225479126,80.38517481088638 257.4218225479126,81.12591552734375 256.68108183145523,81.12591552734375 " class="selected" stroke-opacity="1" fill-opacity="1"/></g></svg>